# xmcd
#
# Track frame offsets:
#	150
#	12910
#	28157
#	39232
#	56223
#	70923
#	84866
#	99281
#	112251
#	124135
#	136418
#	156447
#	170356
#	182738
#
# Disc length: 2712 seconds
#
# Revision: 0
# Processed by: cddbd v1.5.1PL2 Copyright (c) Steve Scherf et al.
# Submitted via: EasyCDDAExtractor 8.0.2.1
#
DISCID=bb0a960e
DTITLE=LeAnn Rimes - Sings Patsy Cline Songs
DYEAR=2006
DGENRE=Country
TTITLE0=Crazy
TTITLE1=Don't worry
TTITLE2=Leavin' on your mind
TTITLE3=Faded love
TTITLE4=Born to lose
TTITLE5=Cryin' time
TTITLE6=She's got you
TTITLE7=I fall to pieces
TTITLE8=Your cheatin' heart
TTITLE9=Lovesick blues
TTITLE10=Me and Bobby McGee
TTITLE11=Big deal
TTITLE12=Blue
TTITLE13=I will always love you
EXTD=
EXTT0=
EXTT1=
EXTT2=
EXTT3=
EXTT4=
EXTT5=
EXTT6=
EXTT7=
EXTT8=
EXTT9=
EXTT10=
EXTT11=
EXTT12=
EXTT13=
PLAYORDER=
